{"title":"Elephant White 2011 DvDRip x264 Feel-Free","uid":6359481,"size":973471492,"categoryP":"video","categoryS":"movies","magnet":"?xt=urn:btih:d3e61c5dc67bf5d2068a255f6e5dc66c1bff6103&amp;dn=Elephant+White+2011+DvDRip+x264+Feel-Free&amp;tr=udp%3A%2F%2Ftracker.openbittorrent.com%3A80&amp;tr=udp%3A%2F%2Fopen.demonii.com%3A1337&amp;tr=udp%3A%2F%2Ftracker.coppersurfer.tk%3A6969&amp;tr=udp%3A%2F%2Fexodus.desync.com%3A6969","seeders":2,"leechers":0,"uploader":"qwersd","files":-1,"time":1304278833,"description":"Genre:Action | Thriller\nLanguage:English\nIMDb:http://www.imdb.com/title/tt1578882/\nSource:DVD\nSubtitles:Romana\n\n\nFormat : MPEG-4\nFormat profile : Base Media\nCodec ID : isom\nFile size : 927 MiB\nDuration : 1h 31mn\nOverall bit rate : 1 417 Kbps\n\n\nVideo\nFormat profile : &lt;a class=&quot;__cf_email__&quot; href=&quot;/cdn-cgi/l/email-protection&quot; data-cfemail=&quot;aee6c7c9c6eee29a809f&quot;&gt;[email&amp;#160;protected]&lt;/a&gt;&lt;script cf-hash='f9e31' type=&quot;text/javascript&quot;&gt;\n/* &lt;![CDATA[ */!function(){try{var t=&quot;currentScript&quot;in document?document.currentScript:function(){for(var t=document.getElementsByTagName(&quot;script&quot;),e=t.length;e--;)if(t[e].getAttribute(&quot;cf-hash&quot;))return t[e]}();if(t&amp;&amp;t.previousSibling){var e,r,n,i,c=t.previousSibling,a=c.getAttribute(&quot;data-cfemail&quot;);if(a){for(e=&quot;&quot;,r=parseInt(a.substr(0,2),16),n=2;a.length-n;n+=2)i=parseInt(a.substr(n,2),16)^r,e+=String.fromCharCode(i);e=document.createTextNode(e),c.parentNode.replaceChild(e,c)}}}catch(u){}}();/* ]]&gt; */&lt;/script&gt;\nFormat settings, CABAC : Yes\nFormat settings, ReFrames : 3 frames\nFormat settings, GOP : M=1, N=24\nCodec ID : avc1\nCodec ID/Info : Advanced Video Coding\nDuration : 1h 31mn\nBit rate mode : Variable\nBit rate : 978 Kbps\nMaximum bit rate : 7 323 Kbps\nWidth : 640 pixels\nHeight : 272 pixels\nDisplay aspect ratio : 2.35:1\nFrame rate mode : Constant\nFrame rate : 23.976 fps\nColor space : YUV\nChroma subsampling : 4:2:0\nBit depth : 8 bits\nScan type : Progressive\nBits/(Pixel*Frame) : 0.234\nStream size : 633 MiB (68%)\nWriting library : x264\n\n\nAudio\nID : 2\nFormat : AAC\nFormat/Info : Advanced Audio Codec\nFormat version : Version 4\nFormat profile : LC\nFormat settings, SBR : No\nCodec ID : 40\nDuration : 1h 31mn\nBit rate mode : Variable\nBit rate : 445 Kbps\nMaximum bit rate : 505 Kbps\nChannel(s) : 6 channels\nChannel positions : Front: L C R, Side: L R, LFE\nSampling rate : 48.0 KHz\nStream size : 291 MiB (31%)\n\n\nPlot:\n\nA mercenary in Thailand is engaged by a 14 year old girl who gives his life a new meaning.\n\n\nScreens:\n &lt;a href=&quot;\nhttp://www.pix2links.com/images/85896147583894181095.png&quot; rel=&quot;nofollow&quot; target=&quot;_NEW&quot;&gt;\nhttp://www.pix2links.com/images/85896147583894181095.png&lt;/a&gt; &lt;a href=&quot;\nhttp://www.pix2links.com/images/32218632076530939792.png&quot; rel=&quot;nofollow&quot; target=&quot;_NEW&quot;&gt;\nhttp://www.pix2links.com/images/32218632076530939792.png&lt;/a&gt; &lt;a href=&quot;\nhttp://www.pix2links.com/images/80507638143639309133.png&quot; rel=&quot;nofollow&quot; target=&quot;_NEW&quot;&gt;\nhttp://www.pix2links.com/images/80507638143639309133.png&lt;/a&gt; &lt;a href=&quot;\nhttp://www.pix2links.com/images/43776441421599599983.png&quot; rel=&quot;nofollow&quot; target=&quot;_NEW&quot;&gt;\nhttp://www.pix2links.com/images/43776441421599599983.png&lt;/a&gt;\n\nGreets:\n\nINK,CRYS,IMAGINE,LKRG,FXG,3Li,FLAWL3SS,TA,iLLUSiON,ViSiON,DTRG SAFCuk009,LU,TheFalcon007,MYSTiC,PrisM,Noir,WBZ,LAP,Rx,Kingdom,SAFCuk009+Fabreezy,HDLiTE,TWiZTED,ExtraTorrentRG.ELEKTRI4KA,MAGNAT,CM8\nAnd to all the other p2p grps past and present.","torrent":{"xt":"urn:btih:d3e61c5dc67bf5d2068a255f6e5dc66c1bff6103","amp;dn":"Elephant+White+2011+DvDRip+x264+Feel-Free","amp;tr":["udp%3A%2F%2Ftracker.openbittorrent.com%3A80","udp%3A%2F%2Fopen.demonii.com%3A1337","udp%3A%2F%2Ftracker.coppersurfer.tk%3A6969","udp%3A%2F%2Fexodus.desync.com%3A6969"],"infoHash":"d3e61c5dc67bf5d2068a255f6e5dc66c1bff6103","infoHashBuffer":{"type":"Buffer","data":[211,230,28,93,198,123,245,210,6,138,37,95,110,93,198,108,27,255,97,3]},"announce":[],"urlList":[]}}